<svg xmlns="http://www.w3.org/2000/svg" viewBox="0 0 512 512" role="img" aria-labelledby="title desc">
  <title id="title">Volty base front draft</title>
  <desc id="desc">Flat SVG draft of canonical bbotjjak Volty: yellow lightning hood, white face, black hoodie, rounded hands and feet.</desc>
  <defs>
    <style>
      .outline {
        stroke: #333333;
        stroke-width: 11;
        stroke-linecap: round;
        stroke-linejoin: round;
      }
    </style>
  </defs>

  <!-- Draft vector based on the approved 1안 뽀짝 Volty direction. Keep proportions locked before deriving poses. -->
  <path
    class="outline"
    d="M158 126 C179 92 219 70 269 67 L259 16 L326 43 L305 92 C335 88 366 94 389 113 L361 146 C397 182 414 238 397 289 C378 349 320 382 253 381 C185 380 130 346 111 289 C92 232 111 173 158 126 Z"
    fill="#FFD54F"
  />

  <ellipse
    class="outline"
    cx="256"
    cy="220"
    rx="125"
    ry="112"
    fill="#FFFFFF"
  />

  <path
    class="outline"
    d="M147 312 C166 285 202 269 256 269 C310 269 346 285 365 312 L351 423 C346 447 327 462 303 462 L209 462 C185 462 166 447 161 423 Z"
    fill="#333333"
  />

  <circle class="outline" cx="163" cy="351" r="36" fill="#FFFFFF" />
  <circle class="outline" cx="349" cy="351" r="36" fill="#FFFFFF" />
  <ellipse class="outline" cx="202" cy="445" rx="42" ry="31" fill="#FFFFFF" />
  <ellipse class="outline" cx="310" cy="445" rx="42" ry="31" fill="#FFFFFF" />

  <circle cx="210" cy="220" r="12" fill="#111111" />
  <circle cx="302" cy="220" r="12" fill="#111111" />
  <circle cx="177" cy="252" r="21" fill="#FFC7B0" />
  <circle cx="335" cy="252" r="21" fill="#FFC7B0" />

  <path
    d="M239 251 C244 269 268 269 273 251 C265 260 247 260 239 251 Z"
    fill="#FF8A7A"
    stroke="#333333"
    stroke-width="7"
    stroke-linecap="round"
    stroke-linejoin="round"
  />

  <path
    class="outline"
    d="M263 342 L239 392 L267 382 L250 430 L296 363 L269 373 Z"
    fill="#FFD54F"
  />
</svg>
